<svg width="76" height="101" viewBox="0 0 76 101" fill="none" xmlns="http://www.w3.org/2000/svg">
<path d="M59.6968 40.2029C62.4836 35.988 63.9634 31.044 63.9506 25.9912C63.9476 19.1051 61.2107 12.5018 56.3415 7.63262C51.4723 2.76338 44.869 0.0265119 37.9829 0.0234375H13.9487C10.2505 0.0275318 6.70499 1.49844 4.08999 4.11345C1.47498 6.72845 0.0040943 10.274 0 13.9722V100.023H43.9924C51.0585 100.025 57.9258 97.6849 63.5215 93.3702C69.1172 89.0554 73.126 83.0085 74.9215 76.1744C76.7169 69.3402 76.198 62.1038 73.4456 55.5958C70.6932 49.0879 65.8626 43.675 59.7084 40.2029H59.6968ZM23.5701 3.89056H37.9713C43.7816 3.96743 49.3279 6.3295 53.4095 10.4655C57.4911 14.6014 59.7796 20.1784 59.7796 25.9893C59.7796 31.8001 57.4911 37.3771 53.4095 41.5131C49.3279 45.649 43.7816 48.0111 37.9713 48.0879H27.8897V13.9722C27.8897 13.7285 27.8897 13.4849 27.8897 13.2451C27.8897 13.1639 27.8897 13.0866 27.8897 13.0054C27.8897 12.8468 27.8897 12.6844 27.851 12.5297C27.8124 12.375 27.8279 12.3364 27.8163 12.2397C27.8047 12.143 27.7814 11.9574 27.7621 11.822C27.7428 11.6867 27.7234 11.6171 27.7041 11.5127C27.6848 11.4083 27.6615 11.2536 27.6345 11.126C27.6074 10.9983 27.5842 10.9171 27.561 10.8127C27.5378 10.7083 27.5069 10.5652 27.4721 10.426C27.4373 10.2868 27.4141 10.2133 27.3831 10.1089C27.3522 10.0045 27.3174 9.873 27.2787 9.75698C27.24 9.64097 27.2091 9.54818 27.1743 9.4399C27.1395 9.33162 27.0969 9.21559 27.0544 9.10344C27.0119 8.99129 26.9732 8.89462 26.9307 8.7902C26.8881 8.68579 26.8417 8.56979 26.7953 8.46151C26.7489 8.35323 26.7064 8.25656 26.6561 8.15601C26.6058 8.05547 26.5594 7.94332 26.5092 7.83504L26.3545 7.53726C26.3003 7.43285 26.25 7.33231 26.192 7.22789L26.0219 6.93399L25.8479 6.64008L25.6622 6.35392L25.4728 6.06776C25.4109 5.97495 25.3413 5.88215 25.2755 5.78933C25.2098 5.69652 25.144 5.60757 25.0744 5.51863C25.0048 5.42969 24.9352 5.33687 24.8618 5.24793C24.7883 5.15898 24.7225 5.07391 24.6491 4.98884C24.5756 4.90376 24.4982 4.81482 24.4209 4.72587L24.2005 4.47837L23.9607 4.227L23.7287 3.99498L23.5701 3.89056ZM49.5959 95.5917C47.7452 95.9675 45.8615 96.1567 43.9731 96.1563H3.85551V13.9722C3.90722 11.332 4.9923 8.8175 6.8777 6.96866C8.76309 5.11982 11.2984 4.08418 13.9391 4.08418C16.5797 4.08418 19.115 5.11982 21.0004 6.96866C22.8858 8.8175 23.9709 11.332 24.0226 13.9722V51.9551H37.9713C42.5304 51.955 47.0091 50.7546 50.9571 48.4746C51.2858 48.2813 51.6107 48.0879 51.9316 47.8752C52.0361 47.8134 52.1327 47.7438 52.2332 47.678C52.455 47.5362 52.6715 47.3893 52.8829 47.2372L53.2232 46.9935C53.4243 46.8518 53.6216 46.7048 53.8149 46.5527L54.1475 46.2936C54.3486 46.1351 54.5342 45.9688 54.7392 45.8025L55.0253 45.5627C55.2767 45.3423 55.5242 45.118 55.7639 44.8898C55.7992 44.8609 55.8328 44.8299 55.8645 44.797C56.1429 44.5379 56.4098 44.2672 56.6766 43.9927L56.897 43.7568C57.0362 43.6059 57.1793 43.4551 57.3146 43.3043C62.3981 46.0443 66.5143 50.2834 69.1035 55.4453C71.6927 60.6071 72.6293 66.4411 71.786 72.154C70.9426 77.8669 68.3602 83.1815 64.3899 87.375C60.4197 91.5685 55.2542 94.4374 49.5959 95.5917Z" fill="white"/>
</svg>
