<svg width="331" height="55" viewBox="0 0 331 55" fill="none" xmlns="http://www.w3.org/2000/svg">
<path d="M17.2574 37.6859H10V10.4668H15.5993C19.6498 10.4668 21.3451 10.7617 22.9661 11.7929C24.9191 13.0447 26.0596 15.1813 26.0596 17.7222C26.0596 20.2631 25.212 21.7005 23.0403 22.8411C26.503 24.2765 27.6806 26.3409 27.6806 29.5809C27.6806 34.5552 24.2551 37.6859 17.2574 37.6859ZM17.109 15.404H15.0466V20.9662H16.6676C19.7241 20.9662 21.0131 20.1186 21.0131 18.1675C21.0131 16.2867 19.7241 15.404 17.109 15.404ZM17.441 25.8995H15.0466V32.86H17.5504C21.0853 32.86 22.5969 31.8288 22.5969 29.4715C22.5969 27.042 20.9408 25.8995 17.441 25.8995Z" fill="#D85111"/>
<path d="M34.5162 17.2808H29.618V37.6859H34.5162V17.2808Z" fill="#D85111"/>
<path d="M34.5533 10.4668H29.6551V15.3649H34.5533V10.4668Z" fill="#D85111"/>
<path d="M47.5623 38.1644C41.5217 38.1644 36.6606 33.4127 36.6606 27.4834C36.6606 21.4798 41.3752 16.8023 47.4159 16.8023C52.0562 16.8023 56.1087 19.4174 57.6926 24.0949H52.1617C51.1676 22.2161 49.6228 21.2962 47.41 21.2962C44.0215 21.2962 41.59 23.8742 41.59 27.4463C41.59 31.0183 44.1289 33.6705 47.5194 33.6705C49.5446 33.6705 50.945 32.86 52.1597 30.9812H57.6848C55.9896 35.5493 52.3062 38.1644 47.5623 38.1644Z" fill="#D85111"/>
<path d="M69.9068 38.1644C63.9403 38.1644 59.0773 33.3756 59.0773 27.4834C59.0773 21.6243 63.9384 16.8023 69.8697 16.8023C76.0197 16.8023 80.7714 21.554 80.7714 27.6318C80.7733 33.3776 75.8381 38.1644 69.9068 38.1644ZM69.9068 21.2962C66.7019 21.2962 64.0145 24.0578 64.0145 27.4111C64.0145 30.9109 66.6296 33.6725 69.9439 33.6725C73.1859 33.6725 75.8361 30.9109 75.8361 27.4853C75.8381 24.0949 73.1859 21.2962 69.9068 21.2962Z" fill="#D85111"/>
<path d="M95.9346 37.6859V27.7041C95.9346 22.2532 94.462 21.2962 92.0286 21.2962C90.4818 21.2962 89.1928 21.9583 88.4194 23.175C87.7925 24.1691 87.6089 25.3487 87.6089 28.0732V37.6859H82.7166V17.2808H87.2476V19.2338C89.0522 17.5035 90.6732 16.8023 92.9934 16.8023C95.8291 16.8023 98.04 17.8335 99.3661 19.7494C100.471 21.3333 100.839 23.1008 100.839 26.7471V37.684H95.9346V37.6859Z" fill="#D85111"/>
<path d="M113.6 38.1644C107.633 38.1644 102.77 33.3756 102.77 27.4834C102.77 21.6243 107.631 16.8023 113.563 16.8023C119.713 16.8023 124.464 21.554 124.464 27.6318C124.464 33.3776 119.529 38.1644 113.6 38.1644ZM113.6 21.2962C110.395 21.2962 107.707 24.0578 107.707 27.4111C107.707 30.9109 110.322 33.6725 113.637 33.6725C116.879 33.6725 119.529 30.9109 119.529 27.4853C119.529 24.0949 116.877 21.2962 113.6 21.2962Z" fill="#D85111"/>
<path d="M152.113 37.6859V26.4971C152.113 22.4095 150.566 21.304 148.283 21.304C145.549 21.304 144.158 22.7766 144.158 27.6396V37.6937H139.26V26.4971C139.26 22.4817 137.86 21.304 135.282 21.304C132.446 21.304 131.304 22.8137 131.304 27.6396V37.6937H126.406V17.2808H130.897V19.1967C132.335 17.4664 133.807 16.8023 136.202 16.8023C139.001 16.8023 140.805 17.7593 142.205 19.9701C143.864 17.7593 145.889 16.8023 148.762 16.8023C154.138 16.8023 157.011 19.7866 157.011 25.8995V37.6859H152.113Z" fill="#D85111"/>
<path d="M165.925 44.5H160.652L164.482 35.77L157.005 17.2808H162.605L167.136 30.5027L172.071 17.2808H177.711L165.925 44.5Z" fill="#D85111"/>
<path d="M197.892 38.1644C189.939 38.1644 183.57 31.8327 183.57 23.9914C183.581 20.2852 185.057 16.7336 187.677 14.1121C190.297 11.4907 193.848 10.0124 197.554 10C203.151 10 208.047 13.0194 210.444 18.2847H204.811C202.97 15.8903 200.835 14.861 197.669 14.861C192.478 14.861 188.648 18.9096 188.648 24.0265C188.648 29.1044 192.773 33.3053 197.778 33.3053C200.394 33.3053 202.308 32.4206 204.516 30.1024H210.444C208.311 35.0728 203.45 38.1644 197.892 38.1644Z" fill="#545757"/>
<path d="M229.331 37.6859V35.0357C227.378 37.2445 225.425 38.1605 222.556 38.1605C216.594 38.1605 212.285 33.7057 212.285 27.5576C212.285 21.3353 216.629 16.816 222.668 16.816C225.613 16.816 227.638 17.773 229.331 20.019V17.2906H233.823V37.6859H229.331ZM223.183 21.3021C219.685 21.3021 217.219 23.9543 217.219 27.6728C217.219 31.2429 219.685 33.6725 223.256 33.6725C226.966 33.6725 229.183 31.0222 229.183 27.6357C229.193 23.9172 226.681 21.3021 223.183 21.3021Z" fill="#545757"/>
<path d="M242.362 26.3467V37.6859H237.466V17.2906H241.958V19.271C243.247 17.3922 244.278 16.8043 246.375 16.8043H246.744V21.5169C243.797 21.597 242.362 23.177 242.362 26.3467Z" fill="#545757"/>
<path d="M268.722 29.661H252.928C253.514 32.1276 255.662 33.6725 258.56 33.6725C260.585 33.6725 261.8 33.1217 263.052 31.6492H268.392C267.025 35.8442 262.794 38.1644 258.672 38.1644C252.449 38.1644 247.627 33.526 247.627 27.5615C247.618 26.1482 247.889 24.7471 248.425 23.4395C248.962 22.132 249.753 20.944 250.752 19.9446C251.751 18.9453 252.939 18.1544 254.247 17.618C255.554 17.0816 256.956 16.8103 258.369 16.8199C264.445 16.8199 268.899 21.4583 268.899 27.79C268.915 28.4185 268.855 29.0466 268.722 29.661ZM258.451 21.3021C255.543 21.3021 253.555 22.7395 252.787 25.3526H264.089C263.458 22.7395 261.47 21.3021 258.451 21.3021Z" fill="#545757"/>
<path d="M292.275 29.661H276.481C277.067 32.1276 279.206 33.6725 282.114 33.6725C284.139 33.6725 285.354 33.1217 286.605 31.6492H291.945C290.578 35.8442 286.348 38.1644 282.225 38.1644C276.003 38.1644 271.181 33.526 271.181 27.5615C271.171 26.1482 271.442 24.7471 271.979 23.4395C272.515 22.132 273.306 20.944 274.305 19.9446C275.305 18.9453 276.493 18.1544 277.8 17.618C279.108 17.0816 280.509 16.8103 281.922 16.8199C287.998 16.8199 292.453 21.4583 292.453 27.79C292.468 28.4185 292.409 29.0466 292.275 29.661ZM282.004 21.3021C279.096 21.3021 277.108 22.7395 276.34 25.3526H287.643C287.02 22.7395 285.031 21.3021 282.012 21.3021H282.004Z" fill="#545757"/>
<path d="M300.529 26.3467V37.6859H295.632V17.2906H300.124V19.271C301.413 17.3922 302.444 16.8043 304.542 16.8043H304.911V21.5169C301.964 21.597 300.529 23.177 300.529 26.3467Z" fill="#545757"/>
<path d="M313.598 38.1644C309.548 38.1644 306.64 35.9556 306.124 31.2058H311.057C311.536 32.9362 312.346 33.6725 313.782 33.6725C315.034 33.6725 315.991 32.8268 315.991 31.6843C315.991 30.5125 315.807 30.1746 312.53 29.0712C308.481 27.7041 306.866 26.0147 306.866 23.0325C306.866 19.5366 309.848 16.8121 313.641 16.8121C317.102 16.8121 320.156 19.0932 320.342 22.9231H315.555C315.334 21.8548 314.672 21.3021 313.641 21.3021C312.573 21.3021 311.762 22.0384 311.762 23.0325C311.762 24.1008 311.874 24.175 315.223 25.2433C319.494 26.5674 320.887 28.1884 320.887 31.2058C320.887 35.108 317.684 38.1644 313.598 38.1644Z" fill="#545757"/>
</svg>
