<svg width="18" height="19" viewBox="0 0 18 19" fill="none" xmlns="http://www.w3.org/2000/svg">
<path d="M9 8.93516C10.0778 9.26366 10.9215 10.1082 11.2492 11.1859C11.5792 10.1082 12.423 9.26441 13.5 8.93591C12.423 8.60666 11.5792 7.76366 11.2492 6.68591C10.9215 7.76291 10.0778 8.60666 9 8.93516ZM15.0007 8.93591C15.7192 9.15566 16.281 9.71741 16.5007 10.4367C16.719 9.71741 17.2822 9.15491 18 8.93591C17.2822 8.71691 16.7197 8.15441 16.5 7.43591C16.2803 8.15441 15.7185 8.71691 15.0007 8.93591ZM14.2507 2.18591C13.923 3.26366 13.0785 4.10741 12.0023 4.43666C13.0808 4.76666 13.923 5.60966 14.253 6.68816C14.5807 5.60966 15.4253 4.76591 16.5 4.43666C15.4253 4.10891 14.5807 3.26366 14.2507 2.18591ZM9 18.6859C4.03725 18.6859 0 14.6487 0 9.68591C0 4.72316 4.03725 0.685913 9 0.685913C10.4205 0.685913 11.7225 1.05866 13.0275 1.57016C10.8165 1.94816 6 4.01966 6 9.68591C6 15.2764 10.4378 17.3419 13.0275 17.8017C11.9025 18.4362 10.4205 18.6859 9 18.6859Z" fill="#545757"/>
</svg>
