<svg width="18" height="21" viewBox="0 0 18 21" fill="none" xmlns="http://www.w3.org/2000/svg">
<path fill-rule="evenodd" clip-rule="evenodd" d="M15.9382 0.523438C17.0746 0.523438 17.9999 1.44344 17.9999 2.58344V20.5234L15.8376 18.6234L14.6207 17.5034L13.3334 16.3134L13.8664 18.1634H2.46162C1.32516 18.1634 0.399902 17.2434 0.399902 16.1034V2.58344C0.399902 1.44344 1.32516 0.523438 2.46162 0.523438H15.9382V0.523438ZM12.0561 13.5834C14.2788 13.5134 15.1336 12.0634 15.1336 12.0634C15.1336 8.84344 13.6854 6.23344 13.6854 6.23344C12.2372 5.15344 10.8593 5.18344 10.8593 5.18344L10.7185 5.34344C12.4282 5.86344 13.2228 6.61344 13.2228 6.61344C12.1768 6.04344 11.151 5.76344 10.1956 5.65344C9.47145 5.57344 8.7775 5.59344 8.16402 5.67344L7.99305 5.69344C7.64105 5.72344 6.78619 5.85344 5.71007 6.32344C5.33796 6.49344 5.1167 6.61344 5.1167 6.61344C5.1167 6.61344 5.95145 5.82344 7.76173 5.30344L7.66116 5.18344C7.66116 5.18344 6.28333 5.15344 4.8351 6.23344C4.8351 6.23344 3.38687 8.84344 3.38687 12.0634C3.38687 12.0634 4.23167 13.5134 6.4543 13.5834C6.4543 13.5834 6.82642 13.1334 7.12813 12.7534C5.85087 12.3734 5.36813 11.5734 5.36813 11.5734L5.64973 11.7434L5.68996 11.7734L5.72935 11.7959L5.74108 11.8009L5.78047 11.8234C6.0319 11.9634 6.28333 12.0734 6.51465 12.1634C6.92699 12.3234 7.41979 12.4834 7.99305 12.5934C8.74733 12.7334 9.63236 12.7834 10.5978 12.6034C11.0705 12.5234 11.5533 12.3834 12.0561 12.1734C12.4081 12.0434 12.8004 11.8534 13.2127 11.5834C13.2127 11.5834 12.7098 12.4034 11.3924 12.7734C11.6941 13.1534 12.0561 13.5834 12.0561 13.5834ZM7.37956 8.91344C6.8063 8.91344 6.35373 9.41344 6.35373 10.0234C6.35373 10.6334 6.81636 11.1334 7.37956 11.1334C7.95282 11.1334 8.40539 10.6334 8.40539 10.0234C8.41545 9.41344 7.95282 8.91344 7.37956 8.91344ZM11.0504 8.91344C10.4772 8.91344 10.0246 9.41344 10.0246 10.0234C10.0246 10.6334 10.4872 11.1334 11.0504 11.1334C11.6237 11.1334 12.0762 10.6334 12.0762 10.0234C12.0762 9.41344 11.6237 8.91344 11.0504 8.91344Z" fill="black"/>
</svg>
