<svg width="18" height="21" viewBox="0 0 18 21" fill="none" xmlns="http://www.w3.org/2000/svg">
<path fill-rule="evenodd" clip-rule="evenodd" d="M15.9382 0.523438C17.0747 0.523438 18 1.44344 18 2.58344V20.5234L15.8377 18.6234L14.6208 17.5034L13.3334 16.3134L13.8665 18.1634H2.46168C1.32522 18.1634 0.399963 17.2434 0.399963 16.1034V2.58344C0.399963 1.44344 1.32522 0.523438 2.46168 0.523438H15.9382V0.523438ZM12.0562 13.5834C14.2788 13.5134 15.1337 12.0634 15.1337 12.0634C15.1337 8.84344 13.6854 6.23344 13.6854 6.23344C12.2372 5.15344 10.8594 5.18344 10.8594 5.18344L10.7186 5.34344C12.4283 5.86344 13.2228 6.61344 13.2228 6.61344C12.1769 6.04344 11.151 5.76344 10.1956 5.65344C9.47151 5.57344 8.77756 5.59344 8.16408 5.67344L7.99311 5.69344C7.64111 5.72344 6.78625 5.85344 5.71013 6.32344C5.33802 6.49344 5.11676 6.61344 5.11676 6.61344C5.11676 6.61344 5.95151 5.82344 7.76179 5.30344L7.66122 5.18344C7.66122 5.18344 6.28339 5.15344 4.83516 6.23344C4.83516 6.23344 3.38693 8.84344 3.38693 12.0634C3.38693 12.0634 4.23173 13.5134 6.45436 13.5834C6.45436 13.5834 6.82648 13.1334 7.12819 12.7534C5.85093 12.3734 5.36819 11.5734 5.36819 11.5734L5.64979 11.7434L5.69002 11.7734L5.72941 11.7959L5.74114 11.8009L5.78053 11.8234C6.03196 11.9634 6.28339 12.0734 6.51471 12.1634C6.92705 12.3234 7.41985 12.4834 7.99311 12.5934C8.74739 12.7334 9.63242 12.7834 10.5979 12.6034C11.0706 12.5234 11.5533 12.3834 12.0562 12.1734C12.4082 12.0434 12.8004 11.8534 13.2128 11.5834C13.2128 11.5834 12.7099 12.4034 11.3924 12.7734C11.6941 13.1534 12.0562 13.5834 12.0562 13.5834ZM7.37962 8.91344C6.80636 8.91344 6.35379 9.41344 6.35379 10.0234C6.35379 10.6334 6.81642 11.1334 7.37962 11.1334C7.95288 11.1334 8.40545 10.6334 8.40545 10.0234C8.41551 9.41344 7.95288 8.91344 7.37962 8.91344ZM11.0505 8.91344C10.4772 8.91344 10.0246 9.41344 10.0246 10.0234C10.0246 10.6334 10.4873 11.1334 11.0505 11.1334C11.6237 11.1334 12.0763 10.6334 12.0763 10.0234C12.0763 9.41344 11.6237 8.91344 11.0505 8.91344Z" fill="white"/>
</svg>
