<svg width="311" height="35" viewBox="0 0 311 35" fill="none" xmlns="http://www.w3.org/2000/svg">
<path d="M7.2574 27.6859H0V0.466766H5.59929C9.64985 0.466766 11.3451 0.761679 12.9661 1.79287C14.9191 3.04475 16.0596 5.18135 16.0596 7.72222C16.0596 10.2631 15.212 11.7005 13.0403 12.8411C16.503 14.2765 17.6806 16.3409 17.6806 19.5809C17.6806 24.5553 14.2551 27.6859 7.2574 27.6859ZM7.10897 5.40399H5.04659V10.9662H6.66759C9.72406 10.9662 11.0131 10.1186 11.0131 8.1675C11.0131 6.28675 9.72406 5.40399 7.10897 5.40399ZM7.44099 15.8995H5.04659V22.86H7.55036C11.0853 22.86 12.5969 21.8288 12.5969 19.4716C12.5969 17.042 10.9408 15.8995 7.44099 15.8995Z" fill="#D85111"/>
<path d="M24.5162 7.28082H19.618V27.6859H24.5162V7.28082Z" fill="#D85111"/>
<path d="M24.5533 0.466766H19.6552V5.36493H24.5533V0.466766Z" fill="#D85111"/>
<path d="M37.5623 28.1644C31.5216 28.1644 26.6606 23.4127 26.6606 17.4834C26.6606 11.4798 31.3752 6.80234 37.4158 6.80234C42.0562 6.80234 46.1087 9.41743 47.6926 14.0949H42.1617C41.1676 12.2161 39.6227 11.2962 37.41 11.2962C34.0215 11.2962 31.59 13.8742 31.59 17.4463C31.59 21.0183 34.1289 23.6705 37.5193 23.6705C39.5446 23.6705 40.9449 22.86 42.1597 20.9812H47.6848C45.9896 25.5493 42.3062 28.1644 37.5623 28.1644Z" fill="#D85111"/>
<path d="M59.9068 28.1644C53.9403 28.1644 49.0773 23.3756 49.0773 17.4834C49.0773 11.6243 53.9384 6.80234 59.8697 6.80234C66.0197 6.80234 70.7714 11.554 70.7714 17.6318C70.7734 23.3776 65.8381 28.1644 59.9068 28.1644ZM59.9068 11.2962C56.7019 11.2962 54.0146 14.0578 54.0146 17.4111C54.0146 20.9109 56.6296 23.6725 59.9439 23.6725C63.1859 23.6725 65.8362 20.9109 65.8362 17.4853C65.8381 14.0949 63.1859 11.2962 59.9068 11.2962Z" fill="#D85111"/>
<path d="M85.9346 27.6859V17.7041C85.9346 12.2532 84.462 11.2962 82.0286 11.2962C80.4818 11.2962 79.1928 11.9583 78.4194 13.175C77.7925 14.1691 77.6089 15.3487 77.6089 18.0732V27.6859H72.7166V7.28083H77.2476V9.23384C79.0522 7.50347 80.6732 6.80234 82.9934 6.80234C85.8292 6.80234 88.04 7.83353 89.3661 9.74944C90.4715 11.3333 90.8386 13.1008 90.8386 16.7471V27.684H85.9346V27.6859Z" fill="#D85111"/>
<path d="M103.6 28.1644C97.6332 28.1644 92.7701 23.3756 92.7701 17.4834C92.7701 11.6243 97.6312 6.80234 103.563 6.80234C109.713 6.80234 114.464 11.554 114.464 17.6318C114.464 23.3776 109.529 28.1644 103.6 28.1644ZM103.6 11.2962C100.395 11.2962 97.7074 14.0578 97.7074 17.4111C97.7074 20.9109 100.322 23.6725 103.637 23.6725C106.879 23.6725 109.529 20.9109 109.529 17.4853C109.529 14.0949 106.877 11.2962 103.6 11.2962Z" fill="#D85111"/>
<path d="M142.113 27.6859V16.4971C142.113 12.4094 140.566 11.304 138.283 11.304C135.549 11.304 134.158 12.7766 134.158 17.6396V27.6937H129.26V16.4971C129.26 12.4817 127.86 11.304 125.282 11.304C122.446 11.304 121.304 12.8137 121.304 17.6396V27.6937H116.406V7.28083H120.897V9.19674C122.335 7.46636 123.807 6.80234 126.202 6.80234C129.001 6.80234 130.805 7.75932 132.205 9.97013C133.864 7.75932 135.889 6.80234 138.762 6.80234C144.138 6.80234 147.011 9.78655 147.011 15.8995V27.6859H142.113Z" fill="#D85111"/>
<path d="M155.925 34.5H150.652L154.482 25.77L147.005 7.28082H152.605L157.136 20.5027L162.071 7.28082H167.711L155.925 34.5Z" fill="#D85111"/>
<path d="M187.892 28.1644C179.939 28.1644 173.57 21.8327 173.57 13.9914C173.581 10.2852 175.057 6.73356 177.677 4.11212C180.297 1.49068 183.848 0.0123674 187.554 0C193.151 0 198.047 3.01936 200.444 8.28469H194.811C192.97 5.89029 190.835 4.86104 187.669 4.86104C182.478 4.86104 178.648 8.90964 178.648 14.0265C178.648 19.1044 182.773 23.3053 187.778 23.3053C190.394 23.3053 192.308 22.4206 194.516 20.1024H200.444C198.311 25.0728 193.45 28.1644 187.892 28.1644Z" fill="#545757"/>
<path d="M219.331 27.6859V25.0357C217.378 27.2445 215.425 28.1605 212.556 28.1605C206.594 28.1605 202.285 23.7057 202.285 17.5576C202.285 11.3353 206.629 6.81601 212.668 6.81601C215.613 6.81601 217.638 7.77299 219.331 10.019V7.29059H223.823V27.6859H219.331ZM213.183 11.3021C209.685 11.3021 207.219 13.9543 207.219 17.6728C207.219 21.2429 209.685 23.6725 213.256 23.6725C216.966 23.6725 219.183 21.0222 219.183 17.6357C219.193 13.9172 216.681 11.3021 213.183 11.3021Z" fill="#545757"/>
<path d="M232.362 16.3467V27.6859H227.466V7.29059H231.958V9.27095C233.247 7.39215 234.278 6.80429 236.375 6.80429H236.744V11.5169C233.797 11.597 232.362 13.177 232.362 16.3467Z" fill="#545757"/>
<path d="M258.722 19.661H242.928C243.514 22.1276 245.662 23.6725 248.56 23.6725C250.585 23.6725 251.8 23.1217 253.052 21.6492H258.392C257.025 25.8442 252.794 28.1644 248.672 28.1644C242.449 28.1644 237.627 23.526 237.627 17.5615C237.618 16.1482 237.889 14.7471 238.425 13.4395C238.962 12.132 239.753 10.944 240.752 9.94465C241.751 8.94528 242.939 8.15442 244.247 7.618C245.554 7.08159 246.956 6.81031 248.369 6.81992C254.445 6.81992 258.899 11.4583 258.899 17.79C258.915 18.4185 258.855 19.0466 258.722 19.661ZM248.451 11.3021C245.543 11.3021 243.555 12.7395 242.787 15.3526H254.089C253.458 12.7395 251.47 11.3021 248.451 11.3021Z" fill="#545757"/>
<path d="M282.275 19.661H266.481C267.067 22.1276 269.206 23.6725 272.114 23.6725C274.139 23.6725 275.354 23.1217 276.605 21.6492H281.945C280.578 25.8442 276.348 28.1644 272.225 28.1644C266.003 28.1644 261.181 23.526 261.181 17.5615C261.171 16.1482 261.442 14.7471 261.979 13.4395C262.515 12.132 263.306 10.944 264.305 9.94465C265.305 8.94528 266.493 8.15442 267.8 7.618C269.108 7.08159 270.509 6.81031 271.922 6.81992C277.998 6.81992 282.453 11.4583 282.453 17.79C282.468 18.4185 282.409 19.0466 282.275 19.661ZM272.004 11.3021C269.096 11.3021 267.108 12.7395 266.34 15.3526H277.643C277.02 12.7395 275.031 11.3021 272.012 11.3021H272.004Z" fill="#545757"/>
<path d="M290.529 16.3467V27.6859H285.632V7.29059H290.124V9.27095C291.413 7.39215 292.444 6.80429 294.542 6.80429H294.911V11.5169C291.964 11.597 290.529 13.177 290.529 16.3467Z" fill="#545757"/>
<path d="M303.598 28.1644C299.548 28.1644 296.64 25.9556 296.124 21.2058H301.057C301.536 22.9362 302.346 23.6725 303.782 23.6725C305.034 23.6725 305.991 22.8268 305.991 21.6843C305.991 20.5125 305.807 20.1746 302.53 19.0712C298.481 17.7041 296.866 16.0147 296.866 13.0325C296.866 9.53657 299.848 6.8121 303.641 6.8121C307.102 6.8121 310.156 9.09323 310.342 12.9231H305.555C305.334 11.8548 304.672 11.3021 303.641 11.3021C302.573 11.3021 301.762 12.0384 301.762 13.0325C301.762 14.1008 301.874 14.175 305.223 15.2433C309.494 16.5674 310.887 18.1884 310.887 21.2058C310.887 25.1079 307.684 28.1644 303.598 28.1644Z" fill="#545757"/>
</svg>
