<svg width="18" height="19" viewBox="0 0 18 19" fill="none" xmlns="http://www.w3.org/2000/svg">
<path d="M3.05175 10.4359H0V8.93591H3.05175C3.021 9.18191 3 9.43166 3 9.68591C3 9.94016 3.021 10.1899 3.05175 10.4359ZM5.32725 4.95191L3.1665 2.79116L2.106 3.85166L4.26675 6.01241C4.575 5.61566 4.9305 5.26016 5.32725 4.95191ZM13.734 6.01241L15.8948 3.85166L14.8342 2.79116L12.6735 4.95191C13.0695 5.26016 13.425 5.61641 13.734 6.01241ZM9 3.68591C9.25425 3.68591 9.504 3.70691 9.75 3.73766V0.685913H8.25V3.73766C8.496 3.70691 8.74575 3.68591 9 3.68591ZM9 15.6859C8.74575 15.6859 8.496 15.6649 8.25 15.6342V18.6859H9.75V15.6342C9.504 15.6649 9.25425 15.6859 9 15.6859ZM14.9482 8.93591C14.979 9.18191 15 9.43166 15 9.68591C15 9.94016 14.979 10.1899 14.9482 10.4359H18V8.93591H14.9482ZM12.6735 14.4199L14.8335 16.5799L15.8948 15.5194L13.7347 13.3594C13.4257 13.7554 13.0703 14.1109 12.6735 14.4199ZM4.266 13.3587L2.106 15.5187L3.1665 16.5792L5.3265 14.4192C4.9305 14.1109 4.57425 13.7554 4.266 13.3587ZM9 5.18591C6.5145 5.18591 4.5 7.20041 4.5 9.68591C4.5 12.1714 6.5145 14.1859 9 14.1859C11.4855 14.1859 13.5 12.1714 13.5 9.68591C13.5 7.20041 11.4855 5.18591 9 5.18591Z" fill="white"/>
</svg>
