<svg width="23" height="19" viewBox="0 0 23 19" fill="none" xmlns="http://www.w3.org/2000/svg">
<path fill-rule="evenodd" clip-rule="evenodd" d="M17.4889 18.3247C17.7787 18.5299 18.1522 18.5812 18.4852 18.4552C18.8182 18.3283 19.063 18.0439 19.1368 17.6992C19.9189 14.0236 21.8161 4.72028 22.528 1.37677C22.582 1.12477 22.492 0.862871 22.294 0.694571C22.096 0.526271 21.8215 0.477671 21.5767 0.568571C17.803 1.96537 6.1813 6.32588 1.43109 8.08358C1.12959 8.19518 0.93339 8.48498 0.94329 8.80268C0.95409 9.12128 1.16829 9.39758 1.47699 9.49028C3.60729 10.1275 6.4036 11.014 6.4036 11.014C6.4036 11.014 7.7104 14.9605 8.3917 16.9675C8.4772 17.2195 8.6743 17.4175 8.9344 17.4859C9.1936 17.5534 9.4708 17.4823 9.6643 17.2996C10.7587 16.2664 12.4507 14.6689 12.4507 14.6689C12.4507 14.6689 15.6655 17.026 17.4889 18.3247ZM7.5799 10.5154L9.091 15.4996L9.4267 12.3433C9.4267 12.3433 15.265 7.07738 18.5932 4.07588C18.6904 3.98767 18.7039 3.84008 18.6229 3.73657C18.5428 3.63307 18.3952 3.60877 18.2845 3.67897C14.4271 6.14228 7.5799 10.5154 7.5799 10.5154Z" fill="white"/>
</svg>
