<svg width="23" height="19" viewBox="0 0 23 19" fill="none" xmlns="http://www.w3.org/2000/svg">
<path fill-rule="evenodd" clip-rule="evenodd" d="M17.4888 18.3247C17.7786 18.5299 18.1521 18.5812 18.4851 18.4552C18.8181 18.3283 19.063 18.0439 19.1367 17.6992C19.9188 14.0236 21.8161 4.72028 22.528 1.37677C22.582 1.12477 22.492 0.862871 22.294 0.694571C22.096 0.526271 21.8215 0.477671 21.5767 0.568571C17.8029 1.96537 6.18123 6.32588 1.43103 8.08358C1.12953 8.19518 0.933329 8.48498 0.943229 8.80268C0.954029 9.12128 1.16823 9.39758 1.47693 9.49028C3.60723 10.1275 6.40353 11.014 6.40353 11.014C6.40353 11.014 7.71034 14.9605 8.39164 16.9675C8.47714 17.2195 8.67424 17.4175 8.93434 17.4859C9.19354 17.5534 9.47074 17.4823 9.66424 17.2996C10.7586 16.2664 12.4506 14.6689 12.4506 14.6689C12.4506 14.6689 15.6654 17.026 17.4888 18.3247ZM7.57984 10.5154L9.09094 15.4996L9.42664 12.3433C9.42664 12.3433 15.2649 7.07738 18.5931 4.07588C18.6903 3.98767 18.7038 3.84008 18.6228 3.73657C18.5427 3.63307 18.3951 3.60877 18.2844 3.67897C14.427 6.14228 7.57984 10.5154 7.57984 10.5154Z" fill="black"/>
</svg>
