<svg width="24" height="19" viewBox="0 0 24 19" fill="none" xmlns="http://www.w3.org/2000/svg">
<path d="M23.0864 2.65439C22.2715 3.01616 21.3957 3.2598 20.4765 3.36962C21.4151 2.80758 22.1359 1.917 22.4746 0.855677C21.5969 1.37619 20.6242 1.75457 19.5887 1.95853C18.7609 1.07532 17.5786 0.523438 16.2718 0.523438C13.338 0.523438 11.1821 3.26072 11.8447 6.10229C8.06921 5.9131 4.72097 4.10424 2.47928 1.35496C1.28875 3.39731 1.86187 6.06907 3.88484 7.42202C3.14099 7.39803 2.43959 7.19407 1.82772 6.85352C1.77788 8.95863 3.28681 10.9281 5.4722 11.3664C4.83264 11.5399 4.13217 11.5806 3.4197 11.444C3.99743 13.2491 5.67524 14.5624 7.66498 14.5993C5.75461 16.0972 3.34772 16.7663 0.937134 16.482C2.94811 17.7713 5.33746 18.5234 7.90309 18.5234C16.3401 18.5234 21.1068 11.3978 20.8189 5.00682C21.7067 4.36542 22.4773 3.56528 23.0864 2.65439Z" fill="black"/>
</svg>
